<?xml version="1.0" standalone="no"?>
<!DOCTYPE svg PUBLIC "-//W3C//DTD SVG 20010904//EN"
 "http://www.w3.org/TR/2001/REC-SVG-20010904/DTD/svg10.dtd">
<svg version="1.0" xmlns="http://www.w3.org/2000/svg"
 width="544.000000pt" height="168.000000pt" viewBox="0 0 544.000000 168.000000"
 preserveAspectRatio="xMidYMid meet">

<g transform="translate(0.000000,168.000000) scale(0.100000,-0.100000)"
fill="#dda800" stroke="none">
<path d="M1340 1322 c-36 -38 -86 -105 -112 -149 -33 -55 -57 -84 -75 -91 -29
-11 -103 -32 -103 -29 0 1 -2 43 -3 93 -2 80 -5 95 -29 131 -41 63 -117 96
-221 97 -102 1 -165 -16 -216 -61 -103 -88 -65 -219 78 -268 59 -20 161 -31
161 -18 0 6 -26 13 -58 16 -102 9 -164 54 -181 129 -18 80 45 157 144 178 106
22 197 -7 238 -77 22 -38 32 -123 23 -187 -7 -42 -12 -50 -64 -85 -68 -46
-106 -85 -161 -165 -46 -67 -52 -96 -19 -96 73 0 215 123 266 232 33 68 25 63
142 90 9 2 14 -3 12 -12 -29 -123 -32 -156 -23 -202 14 -64 35 -95 76 -108 43
-14 77 -5 130 36 41 31 44 32 50 14 10 -31 34 -50 63 -50 34 1 55 17 96 75
l33 46 -1 -58 c-1 -56 0 -58 26 -61 31 -4 85 40 144 119 21 27 41 49 45 49 4
0 -4 -36 -17 -81 -14 -45 -23 -83 -20 -86 17 -17 50 17 92 96 59 113 114 186
139 186 26 0 23 -27 -16 -168 -17 -60 -28 -111 -26 -114 16 -16 51 15 79 70
38 76 81 141 121 185 60 63 73 32 34 -84 -36 -104 -40 -139 -22 -158 9 -9 27
-16 41 -16 30 0 99 62 146 130 18 27 36 50 41 50 4 0 7 -25 7 -55 0 -60 19
-109 45 -119 45 -17 105 2 130 40 13 21 18 22 40 12 34 -15 68 3 108 59 17 24
32 41 34 39 2 -2 -3 -29 -12 -59 -20 -69 -10 -97 35 -97 37 0 86 42 142 121
22 33 43 57 46 55 2 -3 -3 -27 -13 -55 -28 -84 -9 -132 47 -118 32 8 100 78
153 157 36 54 48 64 93 79 29 10 52 17 52 17 0 -1 -18 -37 -40 -81 -59 -117
-53 -175 17 -175 26 0 42 10 80 50 53 56 63 60 63 27 0 -38 27 -67 64 -67 38
0 54 11 95 64 35 44 37 36 13 -50 -14 -51 -25 -69 -68 -108 l-52 -46 -1431 0
-1431 0 -33 36 -33 36 -164 -41 c-90 -23 -166 -44 -168 -46 -8 -8 214 -85 244
-85 10 0 45 16 80 35 l62 35 1431 0 1430 0 -6 -50 c-4 -37 -2 -50 7 -50 22 0
79 40 101 71 20 29 21 29 122 29 139 0 141 -1 154 -63 7 -33 7 -56 1 -64 -7
-8 -3 -10 11 -6 12 3 21 3 21 1 0 -3 -63 -47 -140 -98 -134 -89 -141 -92 -155
-74 -13 18 -20 13 -112 -79 l-98 -98 75 32 c191 80 193 82 169 106 -8 8 25 35
124 102 125 83 167 101 167 69 0 -5 5 -6 12 -2 8 5 9 0 5 -15 -4 -17 -2 -20 7
-12 19 16 56 2 49 -17 -4 -12 -1 -11 10 3 9 11 17 18 18 15 9 -33 3 -84 -26
-192 l-34 -128 22 0 c20 0 26 13 57 137 19 75 44 148 55 162 l19 25 7 -25 c6
-22 7 -22 8 -3 1 26 49 43 62 22 7 -10 9 -8 9 6 0 12 5 16 15 12 9 -3 15 0 15
10 0 10 6 14 15 10 8 -3 15 -1 15 5 0 18 12 7 99 -84 82 -85 84 -88 66 -107
-10 -11 -15 -23 -12 -26 9 -9 180 -104 182 -102 1 2 -18 45 -42 95 l-44 93
-25 -17 c-25 -16 -26 -16 -95 53 -39 38 -80 82 -92 98 l-21 29 21 -5 c17 -4
19 -2 15 15 -3 14 -1 18 6 13 7 -4 12 -1 12 8 0 8 8 21 18 28 9 7 18 20 20 28
2 8 8 20 13 25 6 6 112 11 265 13 l255 3 41 -36 c23 -19 51 -35 62 -35 12 0
81 18 154 40 72 22 135 40 140 41 13 1 -132 49 -211 70 l-78 20 -34 -21 c-18
-11 -38 -27 -45 -35 -10 -13 -53 -15 -264 -15 -245 0 -301 7 -266 30 13 8 12
10 -4 10 -11 0 -17 3 -13 6 3 4 -3 24 -13 45 l-20 38 63 44 c123 87 143 98
169 92 21 -5 33 3 77 51 28 31 50 58 48 61 -2 2 -41 -11 -85 -28 -71 -28 -81
-35 -77 -53 4 -18 -12 -32 -99 -89 -69 -45 -109 -65 -120 -61 -11 4 -15 13
-11 23 5 12 3 13 -5 4 -9 -8 -20 -8 -44 2 -17 7 -35 12 -41 12 -21 -4 -15 66
14 170 16 59 33 125 36 146 6 32 16 44 56 70 55 36 54 29 20 149 l-17 62 -58
-70 c-82 -98 -87 -110 -51 -138 l29 -23 -43 -164 c-23 -90 -46 -166 -50 -169
-4 -3 -10 -13 -14 -23 -4 -10 -11 -16 -16 -13 -5 4 -21 2 -35 -4 -20 -7 -28
-6 -36 8 -8 13 -10 13 -8 2 2 -8 -1 -16 -6 -17 -5 -1 -12 -7 -17 -14 -6 -10
-11 -10 -23 1 -14 11 -16 10 -10 -3 6 -17 -30 -42 -46 -32 -6 4 -7 -1 -3 -11
5 -14 3 -16 -11 -11 -10 4 -15 3 -11 -3 4 -6 -7 -23 -23 -38 -16 -15 -27 -32
-25 -38 2 -6 -13 -14 -34 -18 -47 -7 -208 -8 -215 -1 -3 3 -1 23 6 44 7 24 34
60 76 102 68 66 170 194 170 212 0 6 -2 8 -4 6 -2 -2 -34 -42 -71 -89 -70 -87
-138 -156 -142 -142 -2 4 15 70 36 147 27 97 36 144 29 153 -15 18 -107 14
-153 -7 -47 -22 -91 -68 -127 -131 -42 -73 -107 -142 -132 -138 -32 5 -24 58
24 167 22 51 40 96 40 101 0 4 -22 1 -49 -7 -57 -19 -86 -12 -78 17 3 11 1 20
-3 20 -15 0 -40 -43 -40 -68 0 -42 -145 -232 -177 -232 -27 0 -24 32 17 156
23 69 39 128 36 131 -13 13 -49 -13 -68 -50 -51 -102 -161 -237 -191 -237 -26
0 -21 33 23 165 21 66 38 121 36 123 -12 11 -57 -13 -62 -34 -8 -32 -78 -141
-117 -182 -31 -32 -60 -41 -72 -22 -3 5 1 30 10 55 8 25 15 75 15 112 0 64 -1
65 -18 49 -27 -24 -43 -87 -41 -156 2 -47 -2 -64 -17 -81 -42 -47 -82 -48
-102 -3 -22 47 -14 81 34 146 93 127 144 260 144 381 0 41 -4 57 -14 57 -31 0
-140 -188 -190 -330 -41 -116 -182 -296 -216 -275 -15 9 -12 32 15 120 29 91
31 137 10 155 -34 28 -97 -18 -162 -117 -18 -29 -35 -53 -37 -53 -2 0 4 33 12
74 13 62 14 77 3 90 -34 41 -97 3 -158 -96 -20 -33 -39 -56 -41 -50 -2 6 6 41
18 78 11 37 17 71 13 75 -15 13 -50 -10 -57 -37 -8 -30 -98 -162 -146 -213
-32 -36 -66 -38 -64 -6 1 11 15 70 32 130 36 127 33 135 -47 135 -91 0 -185
-77 -213 -174 -22 -79 -119 -152 -167 -126 -47 25 -53 100 -20 242 21 87 22
90 70 124 56 41 106 107 137 181 45 106 15 112 -78 15z m20 -76 c-11 -33 -96
-123 -106 -113 -9 9 47 118 80 155 29 33 31 34 34 14 2 -12 -2 -38 -8 -56z
m1232 -53 c-15 -92 -108 -271 -129 -249 -16 16 74 299 110 345 21 26 31 -23
19 -96z m-968 -149 c24 -9 20 -28 -26 -122 -48 -96 -95 -152 -126 -152 -70 0
4 201 95 261 31 21 34 22 57 13z m2045 -10 c7 -6 -50 -128 -84 -181 -44 -66
-78 -91 -101 -72 -40 33 22 183 100 241 35 25 65 30 85 12z m-2704 -46 c-26
-85 -121 -208 -161 -208 -35 0 29 123 97 184 57 51 74 57 64 24z m3175 -216
c0 -5 -20 -35 -45 -67 l-46 -58 21 -23 c13 -13 17 -24 12 -28 -11 -7 -203 1
-210 9 -10 9 50 83 91 113 57 41 177 77 177 54z m118 -19 c46 -22 82 -75 82
-119 0 -39 3 -39 -72 -18 -61 18 -67 24 -43 44 24 20 18 30 -11 20 -35 -14
-42 -13 -47 8 -2 9 -2 3 0 -14 3 -25 -2 -35 -23 -49 -14 -9 -27 -15 -29 -13
-2 2 4 35 14 73 11 44 20 64 24 55 4 -8 5 -2 3 14 -4 27 -2 28 31 23 19 -3 51
-14 71 -24z m-684 -111 c-5 -25 -12 -32 -30 -32 -31 0 -30 15 3 46 31 29 35
27 27 -14z m711 -52 c-4 -6 6 -7 25 -4 27 6 30 4 24 -12 -15 -41 -71 -104
-119 -133 -53 -32 -135 -55 -148 -42 -4 4 8 30 28 57 20 27 38 57 41 67 4 9
10 17 15 17 5 0 0 9 -11 20 -34 34 -24 40 66 40 53 0 83 -4 79 -10z m-364 -15
c24 -9 50 -17 57 -20 10 -4 8 -11 -7 -31 -26 -33 -22 -38 13 -24 37 14 44 13
49 -7 2 -10 2 -4 0 14 -3 26 2 35 28 54 l32 23 -6 -40 c-4 -21 -12 -57 -18
-79 -10 -35 -13 -37 -21 -20 -6 15 -7 12 -4 -12 3 -18 1 -35 -4 -38 -29 -18
-141 42 -167 88 -14 25 -17 107 -4 107 5 0 28 -7 52 -15z m-371 -2 c0 -10 -42
-53 -52 -53 -4 0 -8 14 -8 30 0 27 3 30 30 30 17 0 30 -3 30 -7z"/>
<path d="M4018 633 c7 -3 16 -2 19 1 4 3 -2 6 -13 5 -11 0 -14 -3 -6 -6z"/>
<path d="M4180 549 c0 -5 5 -7 10 -4 6 3 10 8 10 11 0 2 -4 4 -10 4 -5 0 -10
-5 -10 -11z"/>
<path d="M4288 933 c-8 -10 -13 -26 -10 -36 4 -18 5 -18 23 -1 19 17 26 54 11
54 -5 0 -16 -8 -24 -17z"/>
<path d="M4395 908 c-23 -13 -35 -28 -35 -46 0 -20 56 13 63 38 6 23 1 24 -28
8z"/>
<path d="M4508 774 c-39 -21 -36 -37 5 -29 34 8 57 22 57 36 0 14 -32 10 -62
-7z"/>
<path d="M4524 686 c-18 -14 -18 -15 0 -22 22 -8 68 6 74 24 5 17 -49 16 -74
-2z"/>
<path d="M3607 502 c-31 -21 -26 -32 12 -32 30 0 88 39 59 40 -9 0 -22 2 -30
5 -7 3 -25 -3 -41 -13z"/>
<path d="M4475 501 c-8 -14 28 -31 64 -31 33 0 39 8 19 28 -14 14 -74 16 -83
3z"/>
<path d="M1753 433 c-18 -7 -16 -38 3 -53 12 -11 18 -10 32 4 25 25 -2 63 -35
49z m27 -28 c0 -8 -7 -15 -15 -15 -8 0 -15 7 -15 15 0 8 7 15 15 15 8 0 15 -7
15 -15z"/>
<path d="M2582 428 c-16 -16 -15 -33 4 -48 22 -19 54 12 38 37 -14 22 -27 26
-42 11z m29 -23 c-1 -15 -24 -12 -29 3 -3 9 2 13 12 10 10 -1 17 -7 17 -13z"/>
<path d="M2157 423 c-10 -10 -8 -43 2 -43 5 0 8 11 7 25 0 14 -1 25 -2 25 0 0
-4 -3 -7 -7z"/>
<path d="M2991 411 c-6 -10 -7 -21 -4 -25 13 -13 21 -5 19 19 -1 30 -2 30 -15
6z"/>
<path d="M1283 396 c0 -16 4 -22 16 -20 10 2 31 -15 56 -46 22 -27 41 -46 42
-42 8 34 7 132 -1 132 -7 0 -10 -19 -8 -47 l3 -48 -42 48 c-45 52 -66 59 -66
23z"/>
<path d="M1543 413 c-40 -4 -43 -6 -43 -34 0 -25 4 -29 29 -29 37 0 59 -24 41
-45 -16 -20 -39 -19 -63 3 -19 16 -19 16 -16 -3 8 -40 109 -27 109 13 0 27
-20 42 -57 42 -26 0 -33 4 -33 20 0 17 7 20 39 20 22 0 43 5 46 10 3 6 3 9 -2
8 -4 -1 -27 -3 -50 -5z"/>
<path d="M1633 413 c-7 -2 -13 -12 -13 -20 0 -14 2 -14 18 0 26 24 52 22 52
-4 0 -13 -8 -23 -22 -27 -23 -6 -23 -6 2 -12 35 -8 36 -54 1 -58 -15 -2 -30 3
-37 13 -9 12 -14 13 -19 4 -18 -28 72 -41 99 -13 20 19 20 29 2 46 -10 10 -11
17 -2 31 19 31 -37 59 -81 40z"/>
<path d="M1897 413 c-4 -3 -7 -13 -7 -22 1 -13 3 -13 15 2 17 23 50 18 50 -8
0 -12 -9 -22 -25 -26 -22 -6 -23 -7 -4 -8 31 -1 50 -27 34 -46 -7 -8 -21 -15
-32 -15 -10 0 -21 7 -24 15 -8 19 -24 19 -24 0 0 -18 41 -29 75 -21 30 8 42
32 28 55 -8 12 -8 23 -1 36 8 14 7 21 -8 32 -19 14 -66 18 -77 6z"/>
<path d="M2033 413 c-7 -2 -13 -12 -13 -21 0 -14 2 -13 13 2 17 23 52 17 52
-9 0 -12 -9 -22 -25 -26 -23 -7 -23 -7 -3 -8 28 -1 47 -33 31 -49 -17 -17 -38
-15 -60 5 -17 15 -18 15 -18 0 0 -34 94 -34 107 0 3 8 1 23 -4 32 -7 11 -7 23
-2 33 18 32 -35 59 -78 41z"/>
<path d="M2343 414 c-7 -3 -17 -21 -23 -39 -24 -72 47 -127 95 -75 49 54 -6
140 -72 114z m61 -37 c12 -34 -3 -81 -28 -85 -24 -5 -36 14 -36 59 0 61 45 80
64 26z"/>
<path d="M2468 409 c-23 -13 -24 -65 -2 -73 9 -3 27 -6 40 -6 15 0 24 -6 24
-15 0 -22 -29 -30 -52 -16 -11 7 -23 10 -26 6 -9 -9 19 -25 43 -25 39 0 65 28
65 70 0 56 -47 86 -92 59z m60 -37 c3 -31 2 -33 -25 -30 -31 3 -42 30 -22 54
20 24 44 12 47 -24z"/>
<path d="M2739 401 c-29 -23 -31 -88 -3 -108 24 -18 59 -16 78 3 35 35 8 80
-44 72 -32 -5 -39 9 -18 30 17 17 45 15 57 -5 9 -16 10 -16 11 -2 0 32 -47 38
-81 10z m56 -76 c0 -23 -5 -31 -22 -33 -17 -3 -24 3 -29 22 -8 32 3 48 29 44
17 -2 22 -10 22 -33z"/>
<path d="M2868 403 c-23 -28 -28 -51 -17 -80 27 -73 109 -50 109 30 0 56 -59
88 -92 50z m66 -24 c11 -32 1 -78 -19 -86 -25 -9 -45 17 -45 56 0 62 45 83 64
30z"/>
<path d="M3610 395 l-23 -25 35 0 c24 0 42 8 58 25 l23 25 -35 0 c-24 0 -42
-8 -58 -25z"/>
<path d="M4422 398 c10 -16 27 -24 52 -26 l37 -3 -16 25 c-13 20 -26 26 -52
26 -34 0 -35 -1 -21 -22z"/>
<path d="M1277 300 c-4 -15 0 -20 14 -20 17 0 18 3 9 20 -6 11 -12 20 -14 20
-2 0 -6 -9 -9 -20z"/>
<path d="M2200 293 c0 -5 5 -15 10 -23 8 -12 10 -11 10 8 0 12 -4 22 -10 22
-5 0 -10 -3 -10 -7z"/>
<path d="M3778 274 c-15 -8 -35 -28 -43 -44 -18 -35 -18 -35 28 -15 23 9 37
23 41 41 9 34 7 35 -26 18z"/>
<path d="M4227 263 c-5 -21 -1 -33 15 -45 30 -26 40 -22 36 13 -2 19 -12 38
-24 46 -20 13 -22 12 -27 -14z"/>
<path d="M3867 226 c-22 -17 -28 -30 -25 -51 l3 -28 33 27 c20 17 32 37 32 52
0 30 -7 30 -43 0z"/>
<path d="M4107 224 c-13 -25 -13 -31 0 -51 20 -30 28 -29 43 8 12 27 11 33 -8
51 l-20 20 -15 -28z"/>
</g>
</svg>
